<svg version="1.1" xmlns="http://www.w3.org/2000/svg" xmlns:xlink="http://www.w3.org/1999/xlink" width="8" height="14" viewBox="0 0 8 14">
<path id="icon_back" d="M2.728,6.530 C2.728,6.530 7.918,11.819 7.918,11.819 C8.050,11.952 8.047,12.170 7.910,12.306 C7.910,12.306 6.973,13.245 6.973,13.245 C6.836,13.382 6.619,13.385 6.487,13.253 C6.487,13.253 0.082,6.725 0.082,6.725 C-0.050,6.593 -0.046,6.375 0.090,6.239 C0.090,6.239 1.027,5.299 1.027,5.299 C1.075,5.251 1.139,5.240 1.200,5.225 C1.200,5.225 6.463,-0.254 6.463,-0.254 C6.594,-0.385 6.810,-0.382 6.944,-0.247 C6.944,-0.247 7.873,0.683 7.873,0.683 C8.007,0.818 8.011,1.034 7.880,1.165 C7.880,1.165 2.728,6.530 2.728,6.530 z" fill="#CFD4D7" />
</svg>
