<svg version="1.1" xmlns="http://www.w3.org/2000/svg" xmlns:xlink="http://www.w3.org/1999/xlink" width="8" height="14" viewBox="0 0 8 14">
<path id="chat_setting_ico" d="M7.869,7.229 C7.869,7.229 1.543,13.866 1.543,13.866 C1.413,14.000 1.199,13.996 1.064,13.858 C1.064,13.858 0.138,12.903 0.138,12.903 C0.003,12.764 -0.000,12.543 0.130,12.408 C0.130,12.408 5.257,7.030 5.257,7.030 C5.257,7.030 0.167,1.576 0.167,1.576 C0.038,1.443 0.042,1.223 0.175,1.086 C0.175,1.086 1.092,0.141 1.092,0.141 C1.225,0.003 1.438,-0.000 1.567,0.133 C1.567,0.133 6.765,5.704 6.765,5.704 C6.826,5.719 6.888,5.730 6.936,5.779 C6.936,5.779 7.862,6.734 7.862,6.734 C7.996,6.873 8.000,7.094 7.869,7.229 z" fill="#CFD4D7" />
</svg>
