<svg version="1.1" xmlns="http://www.w3.org/2000/svg" xmlns:xlink="http://www.w3.org/1999/xlink" width="28" height="28" viewBox="0 0 28 28">
<path id="loading_white_28" d="M28.000,14.000 C28.000,21.732 21.732,28.000 14.000,28.000 C6.268,28.000 -0.000,21.732 -0.000,14.000 C-0.000,6.268 6.268,-0.000 14.000,-0.000 C14.552,-0.000 15.000,0.448 15.000,1.000 C15.000,1.552 14.552,2.000 14.000,2.000 C7.373,2.000 2.000,7.373 2.000,14.000 C2.000,20.627 7.373,26.000 14.000,26.000 C20.627,26.000 26.000,20.627 26.000,14.000 C26.000,13.662 25.977,13.331 25.950,13.000 C25.950,13.000 26.000,13.000 26.000,13.000 C26.000,12.448 26.448,12.000 27.000,12.000 C27.552,12.000 28.000,12.448 28.000,13.000 C28.000,13.071 27.974,13.133 27.960,13.200 C27.979,13.465 28.000,13.730 28.000,14.000 z" fill="#FFFFFF" />
</svg>
